<svg width="179" height="54" viewBox="0 0 179 54" fill="none" xmlns="http://www.w3.org/2000/svg">
<rect width="178.274" height="53.3754" rx="8.54006" fill="black"/>
<path d="M121.116 25.6214V28.6785H118.983V30.6833H121.116V37.4953C121.116 39.8214 122.288 40.7518 125.235 40.7518C125.753 40.7518 126.246 40.6964 126.678 40.6299V38.6472C126.308 38.6805 126.073 38.7026 125.666 38.7026C124.347 38.7026 123.767 38.1488 123.767 36.8861V30.6833H126.678V28.6785H123.767V25.6214H121.116Z" fill="white"/>
<path d="M134.186 40.9179C138.107 40.9179 140.512 38.5586 140.512 34.6487C140.512 30.7608 138.095 28.3905 134.186 28.3905C130.264 28.3905 127.847 30.7608 127.847 34.6487C127.847 38.5586 130.252 40.9179 134.186 40.9179ZM134.186 38.8023C131.88 38.8023 130.585 37.2848 130.585 34.6487C130.585 32.0346 131.88 30.5061 134.186 30.5061C136.479 30.5061 137.787 32.0346 137.787 34.6487C137.787 37.2738 136.479 38.8023 134.186 38.8023Z" fill="white"/>
<path d="M142.569 40.6853H145.221V33.5632C145.221 31.8685 146.639 30.7276 148.649 30.7276C149.118 30.7276 149.907 30.8051 150.129 30.8716V28.5234C149.845 28.4569 149.34 28.4237 148.945 28.4237C147.194 28.4237 145.702 29.2877 145.319 30.4728H145.122V28.6231H142.569V40.6853Z" fill="white"/>
<path d="M156.712 30.4175C158.673 30.4175 159.955 31.6469 160.017 33.541H153.234C153.382 31.658 154.751 30.4175 156.712 30.4175ZM160.005 37.4288C159.511 38.3703 158.414 38.8909 156.811 38.8909C154.69 38.8909 153.321 37.5507 153.234 35.4351V35.3022H162.717V34.4714C162.717 30.6833 160.461 28.3905 156.724 28.3905C152.938 28.3905 150.534 30.8384 150.534 34.693C150.534 38.5476 152.889 40.9179 156.737 40.9179C159.807 40.9179 161.953 39.5887 162.557 37.4288H160.005Z" fill="white"/>
<path d="M103.729 36.2309C103.934 39.1929 106.682 41.0871 110.772 41.0871C115.143 41.0871 117.878 39.101 117.878 35.9324C117.878 33.4412 116.319 32.0635 112.535 31.2714L110.503 30.8237C108.1 30.3185 107.129 29.6412 107.129 28.4587C107.129 26.9662 108.637 25.9904 110.899 25.9904C113.047 25.9904 114.529 26.9433 114.798 28.4702H117.584C117.418 25.6804 114.683 23.7173 110.938 23.7173C106.912 23.7173 104.228 25.6804 104.228 28.6309C104.228 31.0647 105.749 32.5113 109.084 33.2116L111.462 33.7282C113.903 34.2448 114.977 35.0025 114.977 36.2654C114.977 37.7349 113.29 38.8025 110.989 38.8025C108.522 38.8025 106.809 37.8037 106.567 36.2309H103.729Z" fill="white"/>
<path d="M76.264 28.4237C74.4389 28.4237 72.8604 29.2434 72.0465 30.6168H71.8492V28.6231H69.2965V44.695H71.9478V38.8577H72.1575C72.8604 40.1315 74.3772 40.8847 76.2886 40.8847C79.6799 40.8847 81.8379 38.4811 81.8379 34.6487C81.8379 30.8162 79.6799 28.4237 76.264 28.4237ZM75.5117 38.7469C73.292 38.7469 71.8985 37.1741 71.8985 34.6597C71.8985 32.1343 73.292 30.5615 75.5241 30.5615C77.7684 30.5615 79.1126 32.1011 79.1126 34.6487C79.1126 37.2073 77.7684 38.7469 75.5117 38.7469Z" fill="white"/>
<path d="M91.1154 28.4237C89.2903 28.4237 87.7118 29.2434 86.8979 30.6168H86.7006V28.6231H84.1479V44.695H86.7992V38.8577H87.0089C87.7118 40.1315 89.2286 40.8847 91.14 40.8847C94.5312 40.8847 96.6893 38.4811 96.6893 34.6487C96.6893 30.8162 94.5312 28.4237 91.1154 28.4237ZM90.3631 38.7469C88.1434 38.7469 86.7499 37.1741 86.7499 34.6597C86.7499 32.1343 88.1434 30.5615 90.3754 30.5615C92.6198 30.5615 93.964 32.1011 93.964 34.6487C93.964 37.2073 92.6198 38.7469 90.3631 38.7469Z" fill="white"/>
<path d="M64.5396 40.6853H67.5816L60.9224 24.1191H57.8421L51.1829 40.6853H54.1226L55.8226 36.2883H62.8524L64.5396 40.6853ZM59.2352 27.127H59.4525L62.1239 34.13H56.5511L59.2352 27.127Z" fill="white"/>
<path d="M52.9639 11.6237V19.6153H56.1763C58.8276 19.6153 60.3629 18.1477 60.3629 15.5946C60.3629 13.0802 58.8153 11.6237 56.1763 11.6237H52.9639ZM54.345 12.7535H56.0222C57.8658 12.7535 58.9571 13.8057 58.9571 15.6112C58.9571 17.4443 57.8843 18.4855 56.0222 18.4855H54.345V12.7535Z" fill="white"/>
<path d="M65.065 19.7316C67.0258 19.7316 68.2281 18.552 68.2281 16.597C68.2281 14.6531 67.0196 13.4679 65.065 13.4679C63.1043 13.4679 61.8958 14.6531 61.8958 16.597C61.8958 18.552 63.0981 19.7316 65.065 19.7316ZM65.065 18.6738C63.912 18.6738 63.2646 17.9151 63.2646 16.597C63.2646 15.29 63.912 14.5257 65.065 14.5257C66.2119 14.5257 66.8655 15.29 66.8655 16.597C66.8655 17.9096 66.2119 18.6738 65.065 18.6738Z" fill="white"/>
<path d="M78.4672 13.5842H77.1415L75.9454 18.1865H75.8405L74.4594 13.5842H73.1892L71.8081 18.1865H71.7094L70.5071 13.5842H69.1629L71.0127 19.6153H72.3753L73.7565 15.1737H73.8613L75.2486 19.6153H76.6236L78.4672 13.5842Z" fill="white"/>
<path d="M79.9939 19.6153H81.3195V16.0875C81.3195 15.146 81.9423 14.5589 82.9227 14.5589C83.903 14.5589 84.3717 15.0408 84.3717 16.01V19.6153H85.6973V15.7109C85.6973 14.2765 84.8711 13.4679 83.3728 13.4679C82.3616 13.4679 81.6957 13.8722 81.3689 14.5423H81.2702V13.5842H79.9939V19.6153Z" fill="white"/>
<path d="M87.7851 19.6153H89.1108V11.2305H87.7851V19.6153Z" fill="white"/>
<path d="M94.0965 19.7316C96.0572 19.7316 97.2596 18.552 97.2596 16.597C97.2596 14.6531 96.0511 13.4679 94.0965 13.4679C92.1357 13.4679 90.9272 14.6531 90.9272 16.597C90.9272 18.552 92.1296 19.7316 94.0965 19.7316ZM94.0965 18.6738C92.9435 18.6738 92.296 17.9151 92.296 16.597C92.296 15.29 92.9435 14.5257 94.0965 14.5257C95.2433 14.5257 95.8969 15.29 95.8969 16.597C95.8969 17.9096 95.2433 18.6738 94.0965 18.6738Z" fill="white"/>
<path d="M101.209 18.7126C100.488 18.7126 99.9639 18.3969 99.9639 17.8542C99.9639 17.3225 100.383 17.0401 101.308 16.9847L102.948 16.8905V17.3945C102.948 18.1422 102.208 18.7126 101.209 18.7126ZM100.87 19.715C101.752 19.715 102.486 19.3716 102.887 18.768H102.991V19.6153H104.268V15.4949C104.268 14.2211 103.318 13.4679 101.635 13.4679C100.112 13.4679 99.0267 14.1325 98.8911 15.1681H100.174C100.322 14.7417 100.833 14.498 101.573 14.498C102.48 14.498 102.948 14.858 102.948 15.4949V16.0155L101.129 16.1096C99.5323 16.1982 98.6321 16.8241 98.6321 17.9096C98.6321 19.0117 99.5755 19.715 100.87 19.715Z" fill="white"/>
<path d="M108.766 19.715C109.691 19.715 110.474 19.3218 110.875 18.6628H110.98V19.6153H112.25V11.2305H110.924V14.5423H110.826C110.462 13.8777 109.685 13.4845 108.766 13.4845C107.071 13.4845 105.979 14.6919 105.979 16.597C105.979 18.5077 107.058 19.715 108.766 19.715ZM109.142 14.5534C110.252 14.5534 110.949 15.3454 110.949 16.6025C110.949 17.8653 110.258 18.6461 109.142 18.6461C108.02 18.6461 107.348 17.8763 107.348 16.597C107.348 15.3287 108.026 14.5534 109.142 14.5534Z" fill="white"/>
<path d="M120.847 19.7316C122.807 19.7316 124.01 18.552 124.01 16.597C124.01 14.6531 122.801 13.4679 120.847 13.4679C118.886 13.4679 117.677 14.6531 117.677 16.597C117.677 18.552 118.88 19.7316 120.847 19.7316ZM120.847 18.6738C119.694 18.6738 119.046 17.9151 119.046 16.597C119.046 15.29 119.694 14.5257 120.847 14.5257C121.993 14.5257 122.647 15.29 122.647 16.597C122.647 17.9096 121.993 18.6738 120.847 18.6738Z" fill="white"/>
<path d="M125.764 19.6153H127.09V16.0875C127.09 15.146 127.713 14.5589 128.693 14.5589C129.674 14.5589 130.142 15.0408 130.142 16.01V19.6153H131.468V15.7109C131.468 14.2765 130.642 13.4679 129.143 13.4679C128.132 13.4679 127.466 13.8722 127.139 14.5423H127.041V13.5842H125.764V19.6153Z" fill="white"/>
<path d="M137.573 12.0834V13.6119H136.507V14.6143H137.573V18.0203C137.573 19.1833 138.159 19.6486 139.633 19.6486C139.892 19.6486 140.138 19.6209 140.354 19.5876V18.5963C140.169 18.6129 140.052 18.624 139.849 18.624C139.189 18.624 138.899 18.3471 138.899 17.7157V14.6143H140.354V13.6119H138.899V12.0834H137.573Z" fill="white"/>
<path d="M142.134 19.6153H143.459V16.093C143.459 15.1792 144.064 14.5645 145.149 14.5645C146.086 14.5645 146.585 15.0518 146.585 16.0155V19.6153H147.911V15.722C147.911 14.2876 147.029 13.4734 145.599 13.4734C144.588 13.4734 143.879 13.8777 143.552 14.5534H143.447V11.2305H142.134V19.6153Z" fill="white"/>
<path d="M152.693 14.4814C153.674 14.4814 154.315 15.0961 154.346 16.0432H150.955C151.029 15.1017 151.713 14.4814 152.693 14.4814ZM154.34 17.9871C154.093 18.4578 153.544 18.7181 152.743 18.7181C151.682 18.7181 150.998 18.048 150.955 16.9902V16.9238H155.696V16.5084C155.696 14.6143 154.568 13.4679 152.699 13.4679C150.807 13.4679 149.604 14.6919 149.604 16.6192C149.604 18.5465 150.782 19.7316 152.706 19.7316C154.241 19.7316 155.314 19.067 155.616 17.9871H154.34Z" fill="white"/>
<path d="M36.7972 27.0894C36.8294 24.8463 38.1705 22.7238 40.2981 21.5489C38.9559 19.8271 36.7078 18.7355 34.3688 18.6698C31.8741 18.4346 29.4556 20.0106 28.1843 20.0106C26.8885 20.0106 24.9312 18.6931 22.8235 18.7321C20.0762 18.8118 17.5151 20.2147 16.1784 22.3721C13.3053 26.8402 15.4484 33.4067 18.2007 37.0184C19.5777 38.7869 21.187 40.7624 23.2928 40.6924C25.3534 40.6156 26.1231 39.5121 28.6104 39.5121C31.0747 39.5121 31.7967 40.6924 33.9453 40.6478C36.1564 40.6156 37.5496 38.8714 38.8783 37.0862C39.8676 35.826 40.629 34.4333 41.134 32.9596C38.5355 31.9724 36.8002 29.6236 36.7972 27.0894Z" fill="white"/>
<path d="M32.739 16.2945C33.9446 14.9946 34.5386 13.3237 34.3947 11.6367C32.5528 11.8105 30.8514 12.6012 29.6295 13.8513C28.4346 15.0727 27.8128 16.7142 27.9304 18.3367C29.773 18.3537 31.5844 17.5844 32.739 16.2945Z" fill="white"/>
</svg>
