<svg width="69" height="56" viewBox="0 0 69 56" fill="none" xmlns="http://www.w3.org/2000/svg">
<path d="M50.7501 53.9999C54.34 53.9999 57.2501 51.0897 57.2501 47.4999C57.2501 43.91 54.34 40.9999 50.7501 40.9999C47.1603 40.9999 44.2501 43.91 44.2501 47.4999C44.2501 51.0897 47.1603 53.9999 50.7501 53.9999Z" stroke="#138806" stroke-width="4" stroke-linecap="round" stroke-linejoin="round"/>
<path d="M18.2501 53.9999C21.84 53.9999 24.7501 51.0897 24.7501 47.4999C24.7501 43.91 21.84 40.9999 18.2501 40.9999C14.6603 40.9999 11.7501 43.91 11.7501 47.4999C11.7501 51.0897 14.6603 53.9999 18.2501 53.9999Z" stroke="#138806" stroke-width="4" stroke-linecap="round" stroke-linejoin="round"/>
<path d="M11.75 47.409C8.18475 47.2335 5.965 46.7038 4.379 45.121C2.793 43.5383 2.2665 41.3153 2.091 37.75M24.75 47.5H44.25M57.25 47.409C60.8153 47.2335 63.035 46.7038 64.621 45.121C67 42.7388 67 38.9103 67 31.25V24.75H51.725C49.3037 24.75 48.0947 24.75 47.1165 24.4315C46.141 24.1145 45.2544 23.5712 44.5291 22.8459C43.8038 22.1206 43.2605 21.234 42.9435 20.2585C42.625 19.2803 42.625 18.0713 42.625 15.65C42.625 12.0198 42.625 10.2063 42.1472 8.73725C41.6718 7.27402 40.8568 5.94408 39.7688 4.85617C38.6809 3.76825 37.351 2.95323 35.8878 2.47775C34.4188 2 32.6053 2 28.975 2H2M2 15H21.5M2 24.75H15" stroke="#138806" stroke-width="4" stroke-linecap="round" stroke-linejoin="round"/>
<path d="M42.625 8.49988H48.5432C53.2752 8.49988 55.638 8.49988 57.562 9.65038C59.4893 10.7976 60.6105 12.8809 62.853 17.0474L67 24.7499" stroke="#138806" stroke-width="4" stroke-linecap="round" stroke-linejoin="round"/>
</svg>
