<svg width="51" height="70" viewBox="0 0 51 70" fill="none" xmlns="http://www.w3.org/2000/svg">
<path d="M51 25.5203C51.0031 21.2108 49.9142 16.9707 47.8348 13.1961C45.7554 9.4215 42.7534 6.23545 39.1092 3.93548C35.4649 1.6355 31.2973 0.296635 26.9955 0.0438976C22.6936 -0.20884 18.3979 0.632797 14.5095 2.49022C10.621 4.34763 7.26665 7.16024 4.75962 10.6654C2.2526 14.1706 0.674689 18.2539 0.173242 22.5342C-0.328205 26.8144 0.263168 31.152 1.89214 35.1417C3.5211 39.1315 6.13453 42.6434 9.48837 45.3494V68.2208C9.48871 68.524 9.56651 68.8221 9.71441 69.0868C9.86231 69.3515 10.0754 69.5739 10.3334 69.7331C10.6135 69.908 10.9372 70.0005 11.2674 70C11.5432 70.0002 11.8153 69.9362 12.0621 69.8132L25.5 63.0938L38.9409 69.8132C39.212 69.9479 39.5131 70.0113 39.8156 69.9971C40.118 69.983 40.4119 69.8919 40.6693 69.7324C40.9268 69.573 41.1392 69.3504 41.2866 69.0859C41.434 68.8214 41.5115 68.5236 41.5116 68.2208V45.3494C44.4738 42.9629 46.8637 39.943 48.5057 36.5116C50.1476 33.0801 51 29.3244 51 25.5203ZM3.55814 25.5203C3.55814 21.1803 4.84501 16.9378 7.25601 13.3293C9.66701 9.7207 13.0939 6.90817 17.1032 5.24733C21.1126 3.5865 25.5243 3.15194 29.7806 3.99863C34.0369 4.84532 37.9466 6.93522 41.0152 10.004C44.0839 13.0729 46.1736 16.9828 47.0202 21.2394C47.8669 25.496 47.4324 29.908 45.7716 33.9177C44.1109 37.9273 41.2986 41.3543 37.6902 43.7655C34.0819 46.1767 29.8397 47.4636 25.5 47.4636C19.6828 47.4566 14.1059 45.1424 9.99256 41.0288C5.87919 36.9151 3.5652 31.3379 3.55814 25.5203ZM37.9535 65.3415L26.2917 59.5117C26.0449 59.3885 25.7729 59.3243 25.497 59.3243C25.2212 59.3243 24.9492 59.3885 24.7024 59.5117L13.0465 65.3415V47.7602C16.8494 49.8968 21.138 51.019 25.5 51.019C29.862 51.019 34.1506 49.8968 37.9535 47.7602V65.3415ZM25.5 41.533C28.6668 41.533 31.7625 40.5939 34.3956 38.8344C37.0287 37.0749 39.0809 34.574 40.2928 31.6481C41.5047 28.7222 41.8218 25.5025 41.204 22.3964C40.5861 19.2902 39.0612 16.437 36.8219 14.1976C34.5827 11.9582 31.7297 10.4332 28.6237 9.8153C25.5178 9.19745 22.2984 9.51455 19.3726 10.7265C16.4469 11.9385 13.9462 13.9909 12.1868 16.6241C10.4274 19.2574 9.48837 22.3533 9.48837 25.5203C9.49308 29.7657 11.1815 33.8358 14.1833 36.8378C17.185 39.8397 21.2549 41.5283 25.5 41.533ZM25.5 13.066C27.9631 13.066 30.3708 13.7964 32.4188 15.1649C34.4667 16.5334 36.0629 18.4785 37.0055 20.7543C37.9481 23.03 38.1947 25.5341 37.7142 27.95C37.2337 30.3659 36.0476 32.5851 34.3059 34.3268C32.5643 36.0686 30.3453 37.2548 27.9295 37.7353C25.5138 38.2159 23.0098 37.9692 20.7343 37.0266C18.4587 36.084 16.5137 34.4877 15.1453 32.4396C13.7769 30.3915 13.0465 27.9835 13.0465 25.5203C13.0465 22.2172 14.3586 19.0494 16.6941 16.7138C19.0295 14.3781 22.1971 13.066 25.5 13.066Z" fill="#138806"/>
</svg>
