<svg width="66" height="66" viewBox="0 0 66 66" fill="none" xmlns="http://www.w3.org/2000/svg">
<path d="M46.8446 2.44917C42.3586 3.68667 38.4141 7.73433 37.3828 12.1687C37.0735 13.5867 37.0735 17.3507 37.3828 18.7687C38.4399 23.2804 42.3844 27.2765 47.0508 28.514C48.7008 28.9781 52.3618 28.9781 54.0118 28.514C58.6524 27.3023 62.3391 23.6156 63.5508 19.0523C64.0407 17.2734 64.0407 13.664 63.5508 11.8851C62.3649 7.34761 58.6524 3.63511 54.1149 2.44917C52.4133 1.98511 48.5203 1.98511 46.8446 2.44917ZM55.8164 10.8281C55.7907 11.6531 49.1391 20.3671 48.5203 20.3671C48.2883 20.3671 46.9477 19.4906 45.5555 18.4078C43.5703 16.8609 43.0547 16.3195 43.1063 15.8812C43.261 14.85 44.1375 15.1078 46.2516 16.7835C47.3602 17.6343 48.3399 18.2531 48.443 18.1242C48.5461 18.021 49.2164 17.1703 49.9125 16.2421C54.5789 10.1578 54.7078 10.0289 55.2493 10.1062C55.6618 10.1578 55.8164 10.364 55.8164 10.8281Z" fill="#17750D"/>
<path d="M27.457 8.27578C15.8039 9.20391 6.11016 17.325 2.8875 28.7977C2.24297 31.1437 2.19141 31.6594 2.19141 36.0938C2.21719 40.193 2.29453 41.1469 2.78438 42.9773C5.51719 53.032 12.9422 60.4828 23.0227 63.2156C24.8531 63.7055 25.7813 63.7828 29.9063 63.8086C34.2891 63.8086 34.882 63.757 37.125 63.1125C40.2445 62.2359 42.5648 61.2047 45.2203 59.4773C53.9602 53.7539 58.6008 44.1117 57.7242 33.4898C57.4406 30.3188 57.2344 29.8547 56.1258 29.9578L55.3008 30.0352V35.4492C55.275 40.3219 55.2234 41.0438 54.682 42.7969C51.4852 53.3156 42.7969 60.6117 32.2781 61.5914C24.6469 62.2875 17.2992 59.6063 11.8336 54.1664C8.63672 50.9438 6.39375 47.1281 5.10469 42.668C4.58906 40.8633 4.51172 40.0383 4.51172 36.0938C4.51172 32.1492 4.58906 31.3242 5.10469 29.5195C6.39375 25.0594 8.63672 21.2438 11.8336 18.0211C17.4281 12.4523 24.3375 9.97734 32.6391 10.6477C34.1602 10.7508 35.5523 10.8023 35.7328 10.725C36.3 10.5187 36.1711 9.10078 35.5781 8.76562C35.3203 8.63672 34.1859 8.43047 33.0773 8.35313C31.9688 8.27578 30.7828 8.19844 30.4219 8.14688C30.0609 8.12109 28.7461 8.17266 27.457 8.27578Z" fill="#17750D"/>
<path d="M28.5398 23.5125C28.0242 24.5437 26.632 26.632 25.4461 28.1273C24.2859 29.6227 22.9969 31.5563 22.6102 32.407C20.2641 37.6406 21.5531 43.0031 26.3227 47.7469C29.3133 50.7375 29.4422 50.7375 32.0977 47.8758C34.4695 45.3492 36.1453 42.7195 37.0734 40.1672C37.6406 38.543 37.7438 37.8727 37.7438 35.3203C37.7438 32.768 37.6406 32.0977 37.0734 30.4734C36.1195 27.7922 34.9594 25.9875 32.768 23.6672C30.2156 20.9602 29.8289 20.9602 28.5398 23.5125ZM31.0922 31.8141C31.1695 31.9945 31.0406 32.8711 30.8086 33.7477C30.0867 36.6094 29.6227 40.7602 29.7 43.8023C29.7773 46.2773 29.7 46.7672 29.3648 46.9992C29.1328 47.1539 28.7719 47.1797 28.5398 47.1023C27.3539 46.6641 27.818 37.6664 29.2617 32.7938C29.6227 31.6336 29.7516 31.4531 30.3188 31.4531C30.6539 31.4531 31.0148 31.6078 31.0922 31.8141Z" fill="#17750D"/>
<path d="M10.6734 30.1383C9.92576 30.2672 9.20388 30.4476 9.04919 30.525C8.55935 30.8343 8.73982 31.8398 9.51326 33.5414C9.95154 34.4695 10.5703 36.6867 10.957 38.5429C11.7562 42.5133 12.6586 44.55 14.489 46.5351C16.5515 48.8039 19.2328 50.0929 22.6359 50.4281C24.0797 50.5828 24.3633 50.557 24.6726 50.1445C25.4719 49.0101 24.9304 48.4945 22.6101 48.082C18.7945 47.4117 16.1133 45.607 14.6953 42.6937C14.2312 41.7656 13.6125 39.6773 13.1742 37.6406C12.7617 35.7328 12.2976 33.825 12.1429 33.4383C11.9883 33.0258 11.8594 32.5875 11.8594 32.4328C11.8594 32.0461 15.675 32.3297 17.9953 32.8968C19.4906 33.2578 19.9031 33.2836 20.2383 33C20.7797 32.5617 20.7281 31.5304 20.1351 31.1953C18.4336 30.2929 13.3031 29.7257 10.6734 30.1383Z" fill="#17750D"/>
<path d="M47.8242 32.0977C47.1281 32.3039 45.375 32.4844 43.957 32.5102C40.3734 32.5617 39.8578 32.6906 39.7547 33.6187C39.7031 34.0312 39.7805 34.4695 39.9352 34.6242C40.2703 34.9594 46.3031 34.882 47.8242 34.5469L48.7781 34.3406L48.5977 35.5266C47.9273 40.1156 45.375 44.1633 41.8945 46.1484C40.425 46.9734 37.0734 47.9531 35.6555 47.9531C34.8047 47.9531 34.8047 47.9789 34.8047 49.1133V50.2734H35.7844C37.5633 50.2734 40.3477 49.5258 42.4617 48.4688C44.8594 47.2828 47.0508 45.2719 48.4172 42.9773C50.0156 40.3219 51.15 36.0422 50.9953 33.2578L50.918 31.8398L50.0156 31.7883C49.5258 31.7625 48.5461 31.9172 47.8242 32.0977Z" fill="#17750D"/>
</svg>
