<svg width="179" height="54" viewBox="0 0 179 54" fill="none" xmlns="http://www.w3.org/2000/svg">
<rect x="0.726196" width="178.274" height="53.3754" rx="8.54006" fill="black"/>
<path d="M90.703 29.024C87.597 29.024 85.0655 31.4112 85.0655 34.6992C85.0655 37.9671 87.597 40.3743 90.703 40.3743C93.8102 40.3743 96.3417 37.9671 96.3417 34.6992C96.3404 31.4112 93.8089 29.024 90.703 29.024ZM90.703 38.1405C89.0008 38.1405 87.5336 36.7221 87.5336 34.7005C87.5336 32.6575 89.0021 31.2604 90.703 31.2604C92.4051 31.2604 93.8723 32.6575 93.8723 34.7005C93.8723 36.7207 92.4051 38.1405 90.703 38.1405ZM78.4034 29.024C75.2975 29.024 72.766 31.4112 72.766 34.6992C72.766 37.9671 75.2975 40.3743 78.4034 40.3743C81.5106 40.3743 84.0421 37.9671 84.0421 34.6992C84.0421 31.4112 81.5106 29.024 78.4034 29.024ZM78.4034 38.1405C76.7012 38.1405 75.2341 36.7221 75.2341 34.7005C75.2341 32.6575 76.7025 31.2604 78.4034 31.2604C80.1056 31.2604 81.5727 32.6575 81.5727 34.7005C81.574 36.7207 80.1056 38.1405 78.4034 38.1405ZM63.7744 30.7667V33.174H69.4765C69.3061 34.5284 68.8598 35.5171 68.1784 36.2043C67.3491 37.0423 66.051 37.9671 63.7744 37.9671C60.2644 37.9671 57.5203 35.1075 57.5203 31.5607C57.5203 28.0139 60.2644 25.1543 63.7744 25.1543C65.668 25.1543 67.0507 25.9069 68.0714 26.8743L69.7525 25.1757C68.3263 23.7999 66.434 22.7471 63.7744 22.7471C58.9663 22.7471 54.9241 26.7022 54.9241 31.5607C54.9241 36.4192 58.9663 40.3743 63.7744 40.3743C66.3692 40.3743 68.3276 39.5136 69.8581 37.9017C71.4322 36.3111 71.9221 34.0747 71.9221 32.2692C71.9221 31.7115 71.8799 31.1951 71.7941 30.7654H63.7744V30.7667ZM123.606 32.6362C123.138 31.3685 121.712 29.024 118.798 29.024C115.904 29.024 113.5 31.3245 113.5 34.6992C113.5 37.8803 115.883 40.3743 119.074 40.3743C121.647 40.3743 123.137 38.7837 123.755 37.859L121.84 36.5686C121.202 37.5147 120.329 38.1379 119.074 38.1379C117.819 38.1379 116.925 37.5574 116.351 36.4178L123.861 33.2794L123.606 32.6362ZM115.947 34.5284C115.883 32.3346 117.628 31.2177 118.883 31.2177C119.862 31.2177 120.691 31.7128 120.969 32.4214L115.947 34.5284ZM109.842 40.0314H112.308V23.3502H109.842V40.0314ZM105.798 30.293H105.714C105.16 29.6258 104.096 29.024 102.757 29.024C99.9481 29.024 97.3744 31.518 97.3744 34.7218C97.3744 37.903 99.9481 40.3756 102.757 40.3756C104.097 40.3756 105.16 39.7738 105.714 39.0866H105.798V39.9033C105.798 42.0743 104.649 43.2352 102.799 43.2352C101.288 43.2352 100.352 42.1397 99.9692 41.215L97.8207 42.1183C98.4374 43.6222 100.075 45.4716 102.799 45.4716C105.692 45.4716 108.139 43.7516 108.139 39.559V29.3696H105.799V30.293H105.798ZM102.97 38.1405C101.267 38.1405 99.8425 36.6994 99.8425 34.7218C99.8425 32.7216 101.267 31.2604 102.97 31.2604C104.649 31.2604 105.968 32.7216 105.968 34.7218C105.968 36.6994 104.649 38.1405 102.97 38.1405ZM135.166 23.3502H129.262V40.0314H131.724V33.7117H135.164C137.895 33.7117 140.581 31.7141 140.581 28.5316C140.581 25.3491 137.897 23.3502 135.166 23.3502ZM135.229 31.3899H131.724V25.672H135.229C137.071 25.672 138.117 27.2133 138.117 28.5316C138.117 29.8233 137.071 31.3899 135.229 31.3899ZM150.458 28.9947C148.674 28.9947 146.826 29.7886 146.062 31.5487L148.248 32.4707C148.716 31.5487 149.587 31.2471 150.5 31.2471C151.774 31.2471 153.07 32.0197 153.091 33.3928V33.5649C152.645 33.3074 151.688 32.9218 150.521 32.9218C148.164 32.9218 145.763 34.2308 145.763 36.6767C145.763 38.9091 147.696 40.3463 149.862 40.3463C151.518 40.3463 152.432 39.595 153.005 38.7143H153.09V40.002H155.469V33.6063C155.47 30.6466 153.281 28.9947 150.458 28.9947ZM150.159 38.1365C149.354 38.1365 148.227 37.7282 148.227 36.7194C148.227 35.4317 149.63 34.938 150.841 34.938C151.922 34.938 152.433 35.1742 153.091 35.4958C152.899 37.0423 151.583 38.1365 150.159 38.1365ZM164.135 29.3589L161.31 36.5913H161.225L158.294 29.3589H155.64L160.036 39.4669L157.529 45.09H160.099L166.875 29.3589H164.135ZM141.941 40.0314H144.404V23.3502H141.941V40.0314Z" fill="white"/>
<path d="M63.3439 13.6676C63.3439 14.7859 63.0164 15.6759 62.3601 16.3404C61.6153 17.1304 60.6434 17.5254 59.4496 17.5254C58.306 17.5254 57.3328 17.125 56.5339 16.3244C55.7336 15.5224 55.3335 14.5297 55.3335 13.3447C55.3335 12.1585 55.7336 11.1657 56.5339 10.365C57.3328 9.56308 58.306 9.16276 59.4496 9.16276C60.0175 9.16276 60.5602 9.27485 61.0752 9.49769C61.5916 9.72187 62.0049 10.0194 62.3139 10.3917L61.618 11.0963C61.0937 10.4625 60.3714 10.1462 59.4483 10.1462C58.6137 10.1462 57.8927 10.4424 57.2839 11.0349C56.6752 11.6274 56.3714 12.3973 56.3714 13.3434C56.3714 14.2895 56.6752 15.0594 57.2839 15.6519C57.8927 16.2443 58.6137 16.5406 59.4483 16.5406C60.3331 16.5406 61.0713 16.243 61.6616 15.6465C62.0445 15.2582 62.2664 14.7178 62.3258 14.0253H59.4483V13.0632H63.2871C63.3268 13.2727 63.3439 13.4742 63.3439 13.6676Z" fill="white"/>
<path d="M69.4318 10.3238H65.824V12.8618H69.0779V13.8238H65.824V16.3618H69.4318V17.3466H64.8059V9.34031H69.4318V10.3238Z" fill="white"/>
<path d="M73.7247 17.3466H72.7066V10.3238H70.4933V9.34031H75.938V10.3238H73.7247V17.3466Z" fill="white"/>
<path d="M79.8771 17.3466V9.34031H80.8952V17.3466H79.8771Z" fill="white"/>
<path d="M85.4104 17.3466H84.3923V10.3238H82.179V9.34031H87.6236V10.3238H85.4104V17.3466Z" fill="white"/>
<path d="M97.9302 16.3125C97.1511 17.1211 96.1831 17.5254 95.025 17.5254C93.8669 17.5254 92.8989 17.1211 92.1211 16.3125C91.342 15.5038 90.9537 14.5137 90.9537 13.3435C90.9537 12.1732 91.342 11.1831 92.1211 10.3744C92.8989 9.56581 93.8669 9.16016 95.025 9.16016C96.1765 9.16016 97.1432 9.56714 97.9249 10.3798C98.7067 11.1924 99.0976 12.1799 99.0976 13.3435C99.0976 14.5137 98.708 15.5038 97.9302 16.3125ZM92.8725 15.6413C93.4588 16.2417 94.1759 16.5406 95.025 16.5406C95.8741 16.5406 96.5925 16.2404 97.1775 15.6413C97.7638 15.0408 98.0583 14.2749 98.0583 13.3435C98.0583 12.4121 97.7638 11.6461 97.1775 11.0456C96.5925 10.4452 95.8741 10.1463 95.025 10.1463C94.1759 10.1463 93.4588 10.4465 92.8725 11.0456C92.2875 11.6461 91.993 12.4121 91.993 13.3435C91.993 14.2749 92.2875 15.0408 92.8725 15.6413Z" fill="white"/>
<path d="M100.526 17.3466V9.34031H101.765L105.616 15.5679H105.659L105.616 14.0253V9.34031H106.634V17.3466H105.571L101.542 10.8161H101.498L101.542 12.3587V17.3466H100.526Z" fill="white"/>
<path d="M63.3439 13.6676C63.3439 14.7859 63.0164 15.6759 62.3601 16.3404C61.6153 17.1304 60.6434 17.5254 59.4496 17.5254C58.306 17.5254 57.3328 17.125 56.5339 16.3244C55.7336 15.5224 55.3335 14.5297 55.3335 13.3447C55.3335 12.1585 55.7336 11.1657 56.5339 10.365C57.3328 9.56308 58.306 9.16276 59.4496 9.16276C60.0175 9.16276 60.5602 9.27485 61.0752 9.49769C61.5916 9.72187 62.0049 10.0194 62.3139 10.3917L61.618 11.0963C61.0937 10.4625 60.3714 10.1462 59.4483 10.1462C58.6137 10.1462 57.8927 10.4424 57.2839 11.0349C56.6752 11.6274 56.3714 12.3973 56.3714 13.3434C56.3714 14.2895 56.6752 15.0594 57.2839 15.6519C57.8927 16.2443 58.6137 16.5406 59.4483 16.5406C60.3331 16.5406 61.0713 16.243 61.6616 15.6465C62.0445 15.2582 62.2664 14.7178 62.3258 14.0253H59.4483V13.0632H63.2871C63.3268 13.2727 63.3439 13.4742 63.3439 13.6676Z" stroke="white" stroke-width="0.240874" stroke-miterlimit="10"/>
<path d="M69.4318 10.3238H65.824V12.8618H69.0779V13.8238H65.824V16.3618H69.4318V17.3466H64.8059V9.34031H69.4318V10.3238Z" stroke="white" stroke-width="0.240874" stroke-miterlimit="10"/>
<path d="M73.7247 17.3466H72.7066V10.3238H70.4933V9.34031H75.938V10.3238H73.7247V17.3466Z" stroke="white" stroke-width="0.240874" stroke-miterlimit="10"/>
<path d="M79.8771 17.3466V9.34031H80.8952V17.3466H79.8771Z" stroke="white" stroke-width="0.240874" stroke-miterlimit="10"/>
<path d="M85.4104 17.3466H84.3923V10.3238H82.179V9.34031H87.6236V10.3238H85.4104V17.3466Z" stroke="white" stroke-width="0.240874" stroke-miterlimit="10"/>
<path d="M97.9302 16.3125C97.1511 17.1211 96.1831 17.5254 95.025 17.5254C93.8669 17.5254 92.8989 17.1211 92.1211 16.3125C91.342 15.5038 90.9537 14.5137 90.9537 13.3435C90.9537 12.1732 91.342 11.1831 92.1211 10.3744C92.8989 9.56581 93.8669 9.16016 95.025 9.16016C96.1765 9.16016 97.1432 9.56714 97.9249 10.3798C98.7067 11.1924 99.0976 12.1799 99.0976 13.3435C99.0976 14.5137 98.708 15.5038 97.9302 16.3125ZM92.8725 15.6413C93.4588 16.2417 94.1759 16.5406 95.025 16.5406C95.8741 16.5406 96.5925 16.2404 97.1775 15.6413C97.7638 15.0408 98.0583 14.2749 98.0583 13.3435C98.0583 12.4121 97.7638 11.6461 97.1775 11.0456C96.5925 10.4452 95.8741 10.1463 95.025 10.1463C94.1759 10.1463 93.4588 10.4465 92.8725 11.0456C92.2875 11.6461 91.993 12.4121 91.993 13.3435C91.993 14.2749 92.2875 15.0408 92.8725 15.6413Z" stroke="white" stroke-width="0.240874" stroke-miterlimit="10"/>
<path d="M100.526 17.3466V9.34031H101.765L105.616 15.5679H105.659L105.616 14.0253V9.34031H106.634V17.3466H105.571L101.542 10.8161H101.498L101.542 12.3587V17.3466H100.526Z" stroke="white" stroke-width="0.240874" stroke-miterlimit="10"/>
<g filter="url(#filter0_ii_5_1699)">
<path d="M14.5074 10.0588C14.1232 10.4698 13.896 11.1077 13.896 11.9336V41.4449C13.896 42.2722 14.1232 42.9087 14.5074 43.3197L14.6052 43.4158L30.9654 26.8841V26.6893V26.4945L14.6052 9.96143L14.5074 10.0588Z" fill="url(#paint0_linear_5_1699)"/>
<path d="M36.4179 32.3959L30.9654 26.8836V26.6887V26.4939L36.4192 20.9829L36.542 21.0536L43.0035 24.7632C44.8483 25.8227 44.8483 27.5561 43.0035 28.6169L36.542 32.3265L36.4179 32.3959Z" fill="url(#paint1_linear_5_1699)"/>
<g filter="url(#filter1_i_5_1699)">
<path d="M36.5421 32.3254L30.9641 26.689L14.5074 43.3194C15.1149 43.9706 16.1198 44.0506 17.2515 43.4021L36.5421 32.3254Z" fill="url(#paint2_linear_5_1699)"/>
</g>
<path d="M36.5421 21.0522L17.2515 9.97677C16.1198 9.32693 15.1149 9.40833 14.5074 10.0595L30.9654 26.6899L36.5421 21.0522Z" fill="url(#paint3_linear_5_1699)"/>
</g>
<defs>
<filter id="filter0_ii_5_1699" x="13.896" y="9.52832" width="30.491" height="34.3218" filterUnits="userSpaceOnUse" color-interpolation-filters="sRGB">
<feFlood flood-opacity="0" result="BackgroundImageFix"/>
<feBlend mode="normal" in="SourceGraphic" in2="BackgroundImageFix" result="shape"/>
<feColorMatrix in="SourceAlpha" type="matrix" values="0 0 0 0 0 0 0 0 0 0 0 0 0 0 0 0 0 0 127 0" result="hardAlpha"/>
<feOffset dy="-0.180655"/>
<feComposite in2="hardAlpha" operator="arithmetic" k2="-1" k3="1"/>
<feColorMatrix type="matrix" values="0 0 0 0 0 0 0 0 0 0 0 0 0 0 0 0 0 0 0.12 0"/>
<feBlend mode="normal" in2="shape" result="effect1_innerShadow_5_1699"/>
<feColorMatrix in="SourceAlpha" type="matrix" values="0 0 0 0 0 0 0 0 0 0 0 0 0 0 0 0 0 0 127 0" result="hardAlpha"/>
<feOffset dy="0.180655"/>
<feComposite in2="hardAlpha" operator="arithmetic" k2="-1" k3="1"/>
<feColorMatrix type="matrix" values="0 0 0 0 1 0 0 0 0 1 0 0 0 0 1 0 0 0 0.25 0"/>
<feBlend mode="normal" in2="effect1_innerShadow_5_1699" result="effect2_innerShadow_5_1699"/>
</filter>
<filter id="filter1_i_5_1699" x="14.5074" y="26.689" width="22.0346" height="17.1611" filterUnits="userSpaceOnUse" color-interpolation-filters="sRGB">
<feFlood flood-opacity="0" result="BackgroundImageFix"/>
<feBlend mode="normal" in="SourceGraphic" in2="BackgroundImageFix" result="shape"/>
<feColorMatrix in="SourceAlpha" type="matrix" values="0 0 0 0 0 0 0 0 0 0 0 0 0 0 0 0 0 0 127 0" result="hardAlpha"/>
<feOffset dy="-0.180655"/>
<feComposite in2="hardAlpha" operator="arithmetic" k2="-1" k3="1"/>
<feColorMatrix type="matrix" values="0 0 0 0 0 0 0 0 0 0 0 0 0 0 0 0 0 0 0.08 0"/>
<feBlend mode="normal" in2="shape" result="effect1_innerShadow_5_1699"/>
</filter>
<linearGradient id="paint0_linear_5_1699" x1="29.5152" y1="11.6214" x2="7.12276" y2="33.7816" gradientUnits="userSpaceOnUse">
<stop stop-color="#00A0FF"/>
<stop offset="0.0066" stop-color="#00A1FF"/>
<stop offset="0.2601" stop-color="#00BEFF"/>
<stop offset="0.5122" stop-color="#00D2FF"/>
<stop offset="0.7604" stop-color="#00DFFF"/>
<stop offset="1" stop-color="#00E3FF"/>
</linearGradient>
<linearGradient id="paint1_linear_5_1699" x1="45.4049" y1="26.6887" x2="13.4531" y2="26.6887" gradientUnits="userSpaceOnUse">
<stop stop-color="#FFE000"/>
<stop offset="0.4087" stop-color="#FFBD00"/>
<stop offset="0.7754" stop-color="#FFA500"/>
<stop offset="1" stop-color="#FF9C00"/>
</linearGradient>
<linearGradient id="paint2_linear_5_1699" x1="33.5129" y1="29.7499" x2="3.14592" y2="59.8019" gradientUnits="userSpaceOnUse">
<stop stop-color="#FF3A44"/>
<stop offset="1" stop-color="#C31162"/>
</linearGradient>
<linearGradient id="paint3_linear_5_1699" x1="10.3627" y1="0.235499" x2="23.9224" y2="13.6546" gradientUnits="userSpaceOnUse">
<stop stop-color="#32A071"/>
<stop offset="0.0685" stop-color="#2DA771"/>
<stop offset="0.4762" stop-color="#15CF74"/>
<stop offset="0.8009" stop-color="#06E775"/>
<stop offset="1" stop-color="#00F076"/>
</linearGradient>
</defs>
</svg>
