<svg width="274" height="63" viewBox="0 0 274 63" fill="none" xmlns="http://www.w3.org/2000/svg">
<path d="M9.96186 43.653C20.1664 53.4597 35.181 56.8951 39.0268 57.5122C36.3906 39.3054 18.8539 26.4874 0.198905 30.3057C-2.30758 51.9965 19.3325 68.205 39.2996 60.126C39.2989 60.1104 39.2973 60.0953 39.2963 60.08C18.1119 57.4952 9.96186 43.653 9.96186 43.653Z" fill="#8BC53F"/>
<path d="M56.977 30.306C54.8541 29.8714 52.6559 29.6431 50.4046 29.6431C42.8299 29.6431 35.8642 32.234 30.3299 36.5684C33.1299 39.1413 35.5061 42.1708 37.349 45.5377C41.7047 43.0687 48.4585 38.9023 50.8361 35.5034C47.8584 40.9265 44.3289 43.4109 38.3569 47.5338C40.0248 51.1086 41.1122 55.0123 41.4776 59.1329C50.7874 54.4204 57.1748 44.7716 57.1748 33.6228C57.1747 32.4998 57.1027 31.3948 56.977 30.306Z" fill="#004619"/>
<path d="M20.8168 18.9389L22.887 31.0633C24.3922 31.7343 25.836 32.5245 27.2079 33.4206L23.3752 18.3952C26.2602 17.0592 28.0266 12.7564 27.0631 8.22401C25.9954 3.19996 21.9786 -0.202676 18.0909 0.623643C14.2033 1.44996 11.9179 6.19228 12.9855 11.2163C13.9489 15.7489 17.3131 18.9606 20.8168 18.9389Z" fill="#EC6D1D"/>
<path d="M34.2541 19.1874L30.6855 33.1778C32.0393 32.3187 33.4455 31.5698 34.8987 30.9387L36.8123 19.7316C39.9909 19.684 42.3807 16.2649 43.3444 11.7322C43.6597 10.2488 44.3896 6.23982 43.8633 3.72595C43.822 3.52626 43.6463 3.38305 43.442 3.38305C43.238 3.38276 43.0624 3.52512 43.0193 3.72453L41.0509 12.988C41.0083 13.1894 40.8868 13.3659 40.7141 13.4773C40.5416 13.5898 40.3313 13.6287 40.1296 13.5861L40.085 13.5765C39.6656 13.4874 39.3979 13.0749 39.4865 12.6555L41.4463 3.43755C41.5435 2.98153 41.2525 2.53374 40.7965 2.4368L40.7812 2.43368C40.5622 2.38712 40.3338 2.42942 40.1461 2.55134C39.9583 2.67311 39.8271 2.86472 39.7806 3.08343L37.8208 12.3014C37.7775 12.5031 37.657 12.6789 37.484 12.7913C37.3116 12.9039 37.1012 12.9428 36.8995 12.8999L36.8555 12.8903C36.4361 12.801 36.1679 12.3887 36.2574 11.9693L38.2162 2.75117C38.2628 2.53232 38.2202 2.30381 38.0987 2.11632C37.9765 1.92855 37.7849 1.79698 37.5665 1.75014C37.1018 1.65178 36.6458 1.94799 36.5473 2.41225L34.5915 11.6149C34.5485 11.8165 34.4274 11.993 34.2547 12.1048C34.0817 12.2169 33.8712 12.2558 33.6702 12.2132L33.6256 12.2036C33.2062 12.1147 32.9385 11.702 33.0275 11.2823L35.0051 1.97964C35.0464 1.78647 34.9504 1.59018 34.7733 1.50318C34.5963 1.41618 34.3818 1.46046 34.2541 1.61105C32.6066 3.55691 31.5706 7.48512 31.2158 9.15408C30.2525 13.6868 31.0443 17.7824 34.2541 19.1874Z" fill="#EC6D1D"/>
<path d="M77.2338 42.322C74.1715 42.322 72.0582 41.6104 70.8937 40.1871C70.0958 39.1951 69.6968 37.8365 69.6968 36.1113C69.6968 35.3134 69.7831 34.4401 69.9556 33.4912L71.0878 27.0218C72.1013 21.2424 75.638 18.3527 81.6977 18.3527C84.1992 18.3527 86.0969 18.8918 87.3908 19.9701C88.6847 21.0267 89.3316 22.4824 89.3316 24.3369C89.3316 25.0917 89.2238 25.8573 89.0081 26.6336C88.8141 27.4099 88.62 27.9922 88.4259 28.3803L88.1024 28.9626H82.377C82.9376 28.1863 83.218 27.2913 83.218 26.2778C83.218 24.3369 82.4093 23.3665 80.7919 23.3665C78.6139 23.3665 77.3092 24.6281 76.8779 27.1512L75.7781 33.3618C75.6703 33.9441 75.6164 34.5155 75.6164 35.0762C75.6164 36.5642 76.4898 37.3082 78.2365 37.3082C80.0048 37.3082 81.137 36.424 81.633 34.6557H78.9805L79.6274 31.0652H88.1995L87.6819 33.847L87.5202 34.7851C86.6144 39.8097 83.1856 42.322 77.2338 42.322ZM105.907 29.6095C105.907 30.3427 105.777 31.0544 105.519 31.7445C105.281 32.4345 105.044 32.9413 104.807 33.2648L104.451 33.7176H99.5667C100.106 33.2216 100.375 32.6071 100.375 31.8738C100.375 31.4857 100.246 31.173 99.9872 30.9358C99.75 30.677 99.4158 30.5476 98.9845 30.5476C98.2513 30.5476 97.6151 30.9142 97.076 31.6474L95.2645 41.8691H89.7655L92.515 26.3101H97.6259L97.2377 28.4774C98.4669 26.7306 99.9549 25.8573 101.702 25.8573C103.103 25.8573 104.149 26.1915 104.839 26.86C105.551 27.5285 105.907 28.445 105.907 29.6095ZM113.368 42.322C108.883 42.322 106.64 40.7693 106.64 37.664C106.64 37.2327 106.683 36.7691 106.77 36.2731L107.449 32.262C107.815 30.1918 108.764 28.6068 110.295 27.507C111.848 26.3856 113.897 25.8249 116.441 25.8249C120.776 25.8249 122.943 27.4638 122.943 30.7417C122.943 31.2161 122.9 31.7337 122.814 32.2944L122.426 34.591H112.56L112.43 35.335C112.387 35.5938 112.366 35.831 112.366 36.0466C112.366 37.2327 113.066 37.8257 114.468 37.8257C114.986 37.8257 115.428 37.664 115.794 37.3405C116.161 37.0171 116.377 36.6397 116.441 36.2084L121.811 36.2731C121.099 40.3057 118.285 42.322 113.368 42.322ZM117.25 32.6178C117.336 32.2512 117.379 31.917 117.379 31.6151C117.379 31.2916 117.239 30.9681 116.959 30.6447C116.679 30.3212 116.226 30.1594 115.6 30.1594C114.997 30.1594 114.436 30.3643 113.918 30.774C113.422 31.1838 113.077 31.7984 112.883 32.6178H117.25ZM131.216 42.322C126.731 42.322 124.488 40.7693 124.488 37.664C124.488 37.2327 124.531 36.7691 124.617 36.2731L125.297 32.262C125.663 30.1918 126.612 28.6068 128.143 27.507C129.696 26.3856 131.745 25.8249 134.289 25.8249C138.624 25.8249 140.791 27.4638 140.791 30.7417C140.791 31.2161 140.748 31.7337 140.662 32.2944L140.273 34.591H130.408L130.278 35.335C130.235 35.5938 130.213 35.831 130.213 36.0466C130.213 37.2327 130.914 37.8257 132.316 37.8257C132.834 37.8257 133.276 37.664 133.642 37.3405C134.009 37.0171 134.224 36.6397 134.289 36.2084L139.659 36.2731C138.947 40.3057 136.133 42.322 131.216 42.322ZM135.098 32.6178C135.184 32.2512 135.227 31.917 135.227 31.6151C135.227 31.2916 135.087 30.9681 134.807 30.6447C134.526 30.3212 134.074 30.1594 133.448 30.1594C132.844 30.1594 132.284 30.3643 131.766 30.774C131.27 31.1838 130.925 31.7984 130.731 32.6178H135.098ZM152.946 31.9385C152.946 31.0113 152.493 30.5476 151.587 30.5476C150.703 30.5476 149.97 30.8819 149.388 31.5504L147.576 41.8691H142.077L144.827 26.3101H149.937L149.582 28.2186C150.854 26.6444 152.46 25.8573 154.401 25.8573C156.342 25.8573 157.604 26.3317 158.186 27.2805C158.553 27.8844 158.736 28.5744 158.736 29.3508C158.736 30.1271 158.682 30.8495 158.574 31.518L157.701 36.4995C157.679 36.6289 157.668 36.7475 157.668 36.8553C157.668 37.4376 157.992 37.7287 158.639 37.7287C159.135 37.7287 159.577 37.6209 159.965 37.4052L159.803 41.0605C158.79 41.9015 157.636 42.322 156.342 42.322C153.409 42.322 151.943 41.0928 151.943 38.6344C151.943 38.2031 151.986 37.7395 152.072 37.2435L152.849 32.9413C152.913 32.5531 152.946 32.2189 152.946 31.9385ZM171.955 18.5791L175.416 29.7389L182.856 18.5791H188.969L184.861 41.8691H179.006L181.335 28.7362L176.354 36.5642H172.116L169.917 28.7362L167.588 41.8691H161.765L165.873 18.5791H171.955ZM204.737 36.8877C204.737 37.4484 205.017 37.7287 205.578 37.7287C206.16 37.7287 206.645 37.6209 207.034 37.4052L206.872 41.0605C205.837 41.9015 204.672 42.322 203.378 42.322C201.006 42.322 199.691 41.4594 199.432 39.7342C198.354 41.4594 196.769 42.322 194.677 42.322C191.14 42.322 189.372 40.8017 189.372 37.761C189.372 37.2435 189.426 36.672 189.534 36.0466L190.213 32.262C190.558 30.3212 191.345 28.7793 192.574 27.6364C193.825 26.4719 195.442 25.8896 197.426 25.8896C199.432 25.8896 200.791 26.3533 201.502 27.2805L201.664 26.3101H206.581L204.769 36.4995C204.748 36.6289 204.737 36.7583 204.737 36.8877ZM195.162 35.335C195.119 35.5291 195.097 35.7986 195.097 36.1437C195.097 36.4887 195.259 36.8338 195.583 37.1788C195.906 37.5023 196.445 37.664 197.2 37.664C197.976 37.664 198.645 37.3621 199.206 36.7583L200.176 31.3239C199.939 30.7848 199.378 30.5153 198.494 30.5153C196.833 30.5153 195.863 31.3132 195.583 32.909L195.162 35.335ZM224.713 29.6095C224.713 30.3427 224.584 31.0544 224.325 31.7445C224.088 32.4345 223.851 32.9413 223.614 33.2648L223.258 33.7176H218.373C218.912 33.2216 219.182 32.6071 219.182 31.8738C219.182 31.4857 219.053 31.173 218.794 30.9358C218.557 30.677 218.222 30.5476 217.791 30.5476C217.058 30.5476 216.422 30.9142 215.883 31.6474L214.071 41.8691H208.572L211.322 26.3101H216.432L216.044 28.4774C217.273 26.7306 218.761 25.8573 220.508 25.8573C221.91 25.8573 222.956 26.1915 223.646 26.86C224.358 27.5285 224.713 28.445 224.713 29.6095ZM232.563 42.322C230.062 42.322 228.261 41.7613 227.161 40.6399C226.342 39.8205 225.932 38.7207 225.932 37.3405C225.932 36.8877 225.975 36.4025 226.061 35.8849L228.261 23.3665L234.18 20.9081L233.242 26.3101H242.17L241.362 30.8711H232.434L231.787 34.5263C231.7 34.9361 231.657 35.3027 231.657 35.6261C231.657 36.9847 232.304 37.664 233.598 37.664C234.288 37.664 234.86 37.3729 235.313 36.7906C235.787 36.2084 236.11 35.432 236.283 34.4616H241.653C240.747 39.7019 237.717 42.322 232.563 42.322Z" fill="black"/>
</svg>
