<svg width="50" height="50" viewBox="0 0 50 50" fill="none" xmlns="http://www.w3.org/2000/svg">
<g opacity="0.1" clip-path="url(#clip0_5_1561)">
<path d="M49.4502 19.2866L49.5 20.8491C49.496 26.3353 47.3832 31.603 43.6104 35.5679L43.2393 35.9478C39.3487 39.8383 34.1129 42.0744 28.625 42.2026V36.9517C30.573 36.896 32.4957 36.4853 34.2988 35.7388C36.1343 34.9789 37.812 33.8855 39.2461 32.5142L39.5283 32.2378C40.1091 31.6581 40.6447 31.0346 41.1309 30.3735L41.8496 29.396L40.6504 29.5835C40.1657 29.6593 39.6718 29.701 39.1709 29.7085H39.0127C37.0775 29.7085 35.1826 29.1709 33.5391 28.1587L33.2139 27.9497C31.6048 26.8745 30.3286 25.3743 29.5244 23.6196L29.3691 23.2651C28.6286 21.4771 28.4007 19.5206 28.707 17.6147L28.7754 17.2349C29.1781 15.2102 30.1721 13.3498 31.6318 11.8901C33.0003 10.5217 34.7207 9.56309 36.5986 9.1167L36.9766 9.03369C38.8747 8.65619 40.838 8.81455 42.6475 9.48682L43.0068 9.62842C44.7948 10.3691 46.3397 11.5906 47.4707 13.1548L47.6914 13.4722C48.8382 15.1886 49.4502 17.2067 49.4502 19.271V19.2866ZM21.3252 19.2866L21.375 20.8491C21.371 26.3353 19.2582 31.603 15.4854 35.5679L15.1143 35.9478C11.2237 39.8383 5.98785 42.0744 0.5 42.2026V36.9517C2.44796 36.896 4.3707 36.4853 6.17383 35.7388C8.00926 34.9789 9.68698 33.8855 11.1211 32.5142L11.4033 32.2378C11.9841 31.6581 12.5197 31.0346 13.0059 30.3735L13.7246 29.396L12.5254 29.5835C12.0409 29.6593 11.5471 29.7009 11.0439 29.7085H10.8877C8.82344 29.7085 6.80526 29.0965 5.08887 27.9497C3.47977 26.8745 2.20361 25.3743 1.39941 23.6196L1.24414 23.2651C0.503551 21.4771 0.275712 19.5206 0.582031 17.6147L0.650391 17.2349C1.05313 15.2102 2.04713 13.3498 3.50684 11.8901C4.87529 10.5217 6.59574 9.56309 8.47363 9.1167L8.85156 9.03369C10.7494 8.65625 12.7123 8.81482 14.5215 9.48682L14.8818 9.62842C16.6698 10.3691 18.2147 11.5906 19.3457 13.1548L19.5664 13.4722C20.7132 15.1886 21.3252 17.2067 21.3252 19.271V19.2866Z" stroke="#058003"/>
</g>
<defs>
<clipPath id="clip0_5_1561">
<rect width="50" height="50" fill="white" transform="matrix(-1 0 0 -1 50 50)"/>
</clipPath>
</defs>
</svg>
