<svg width="25" height="25" viewBox="0 0 25 25" fill="none" xmlns="http://www.w3.org/2000/svg">
<path d="M12.6272 17.9828L7.54369 21.0525C7.39431 21.1263 7.25567 21.1562 7.12776 21.1422C7.00079 21.1272 6.87709 21.0833 6.75665 21.0105C6.63528 20.9358 6.54379 20.8303 6.48217 20.694C6.42055 20.5577 6.41495 20.4088 6.46536 20.2473L7.81817 14.4915L3.34382 10.6124C3.21778 10.5097 3.13469 10.3869 3.09455 10.2441C3.0544 10.1012 3.06327 9.96445 3.12115 9.83375C3.17904 9.70304 3.25606 9.59567 3.35222 9.51165C3.44932 9.43042 3.58003 9.37534 3.74434 9.3464L9.64852 8.83104L11.9508 3.3806C12.0143 3.22655 12.1058 3.11545 12.2253 3.0473C12.3448 2.97915 12.4788 2.94507 12.6272 2.94507C12.7757 2.94507 12.9101 2.97915 13.0305 3.0473C13.151 3.11545 13.242 3.22655 13.3036 3.3806L15.6059 8.83104L21.5087 9.3464C21.6739 9.37441 21.8051 9.42996 21.9022 9.51305C21.9993 9.59521 22.0768 9.70211 22.1347 9.83375C22.1916 9.96445 22.2 10.1012 22.1599 10.2441C22.1197 10.3869 22.0367 10.5097 21.9106 10.6124L17.4363 14.4915L18.7891 20.2473C18.8414 20.4069 18.8362 20.5554 18.7737 20.6926C18.7111 20.8299 18.6192 20.9354 18.4978 21.0091C18.3783 21.0838 18.2546 21.1281 18.1267 21.1422C17.9997 21.1562 17.8615 21.1263 17.7122 21.0525L12.6272 17.9828Z" fill="#F6C944"/>
</svg>
